<?xml version="1.0" encoding="iso-8859-1"?>
<svg xmlns="http://www.w3.org/2000/svg" xmlns:xlink="http://www.w3.org/1999/xlink" version="1.1">
  <defs>
    <symbol id="email-contact">
      <path d="M0,81.824v321.763h485.411V81.824H0z M242.708,280.526L43.612,105.691h398.187L242.708,280.526z    M163.397,242.649L23.867,365.178V120.119L163.397,242.649z M181.482,258.533l61.22,53.762l61.22-53.762L441.924,379.72H43.487   L181.482,258.533z M322.008,242.655l139.535-122.536v245.059L322.008,242.655z" fill="#222629"/>
    </symbol>

    <symbol id="facebook-contact">
      <path d="M167.172,288.861h-62.16V159.347H70.769v-59.48h34.242v-33.4C105.011,35.804,124.195,0,178.284,0   c19.068,0,33.066,1.787,33.651,1.864l5.739,0.746l-1.382,55.663l-6.324-0.058c-0.013,0-14.223-0.135-29.724-0.135   c-11.536,0-13.066,2.847-13.066,14.171v27.629h50.913l-2.821,59.48h-48.086v129.501H167.172z M117.858,276.007h36.453V146.5h48.677   l1.607-33.779h-50.284V72.238c0-13.368,3.078-27.025,25.919-27.025c9.178,0,17.899,0.045,23.509,0.09l0.778-31.292   c-5.675-0.508-15.116-1.157-26.247-1.157c-44.544,0-60.419,27.693-60.419,53.613v46.254H83.61V146.5h34.242v129.507H117.858z" fill="#222629"/>
    </symbol>

    <symbol id="facebook-logo" class="icon">
      <path d="M24.826,0C11.137,0,0,11.137,0,24.826c0,13.688,11.137,24.826,24.826,24.826c13.688,0,24.826-11.138,24.826-24.826    C49.652,11.137,38.516,0,24.826,0z M31,25.7h-4.039c0,6.453,0,14.396,0,14.396h-5.985c0,0,0-7.866,0-14.396h-2.845v-5.088h2.845    v-3.291c0-2.357,1.12-6.04,6.04-6.04l4.435,0.017v4.939c0,0-2.695,0-3.219,0c-0.524,0-1.269,0.262-1.269,1.386v2.99h4.56L31,25.7z    " fill="#FFFFFF"/>
    </symbol>

    <symbol id="github-contact">
      <path d="M18.549,29.909c-2.757,0-5,2.691-5,6s2.243,6,5,6s5-2.691,5-6S21.306,29.909,18.549,29.909z M18.549,39.909    c-1.654,0-3-1.794-3-4s1.346-4,3-4s3,1.794,3,4S20.204,39.909,18.549,39.909z" fill="#222629"/>
  		<path d="M37.549,29.909c-2.757,0-5,2.691-5,6s2.243,6,5,6s5-2.691,5-6S40.306,29.909,37.549,29.909z M37.549,39.909    c-1.654,0-3-1.794-3-4s1.346-4,3-4s3,1.794,3,4S39.204,39.909,37.549,39.909z" fill="#222629"/>
  		<path d="M39.075,24.909c-0.049,0-0.1,0-0.149,0.001c-0.926,0.016-1.853,0.054-2.78,0.091c-0.844,0.034-1.688,0.068-2.531,0.085    l-1.465,0.031c-2.543,0.053-5.178,0.107-7.751,0.097c-1.174-0.005-2.349-0.049-3.522-0.093c-1.598-0.06-3.248-0.124-4.886-0.083    c-2.273,0.055-4.185,0.781-5.685,2.159h0c-2.491,2.289-3.521,5.325-3.148,9.282c0.542,5.743,2.86,8.68,8.002,10.135    c4.323,1.223,8.665,1.333,12.322,1.281l1.218,0.006c0.411,0.003,0.822,0.007,1.233,0.007c0.507,0,1.014-0.005,1.521-0.021    c3.595-0.115,6.746-0.652,9.632-1.644c3.169-1.088,5.279-3.166,6.269-6.175c0.756-2.3,0.978-4.479,0.679-6.662    C47.547,29.856,44.45,24.909,39.075,24.909z M45.456,39.444c-0.795,2.417-2.437,4.022-5.019,4.908    c-2.695,0.925-5.654,1.428-9.046,1.536c-0.891,0.028-1.782,0.02-2.673,0.014l-1.249-0.007c-3.525,0.05-7.688-0.052-11.763-1.206    c-4.317-1.221-6.094-3.498-6.556-8.397C8.84,33,9.661,30.507,11.659,28.67c1.133-1.04,2.606-1.589,4.38-1.633    c1.576-0.036,3.196,0.023,4.762,0.082c1.196,0.045,2.393,0.09,3.589,0.095c2.608,0.012,5.247-0.044,7.802-0.098l1.463-0.03    c0.857-0.018,1.714-0.053,2.571-0.087c0.911-0.037,1.822-0.074,2.733-0.089c0.036-0.001,0.072-0.001,0.108-0.001    c4.13,0,6.607,4.022,6.984,6.771C46.31,35.554,46.114,37.44,45.456,39.444z" fill="#222629"/>
  		<path d="M51.866,18.56c-0.595-0.819-0.867-1.301-0.782-2.176c0.177-1.843-0.075-3.698-0.319-5.491l-0.016-0.118    c-0.326-2.404-0.954-4.698-1.867-6.819l-0.325-0.754L47.08,3.516c-2.051,0.431-4.173,0.877-6.107,1.994    c-1.284,0.742-2.562,1.533-3.797,2.297c-0.827,0.512-1.654,1.024-2.486,1.523c-0.045,0.027-0.135,0.049-0.16,0.049c0,0,0,0,0,0    C30.057,8.598,25.412,8.59,20.72,9.356c-0.058,0.01-0.247-0.022-0.397-0.111c-0.516-0.309-1.019-0.641-1.521-0.972    c-0.583-0.385-1.167-0.769-1.767-1.12c-2.862-1.68-6.024-3.301-9.753-3.777L6.552,3.282L6.163,4.125    C6.09,4.279,6.028,4.412,5.977,4.55c-1.07,2.884-1.715,5.908-1.924,9.085c-0.073,1.101-0.148,2.24,0.014,3.377    c0.054,0.377,0.009,0.453-0.138,0.637c-1.347,1.679-2.31,3.435-2.945,5.368c-1.067,3.246-1.26,6.845-0.609,11.324    c0.54,3.747,1.459,6.481,2.977,8.863c3.193,5.008,8.122,7.829,14.651,8.385c3.263,0.278,6.574,0.32,9.82,0.32    c0.698,0,1.393-0.002,2.084-0.004c0.911-0.003,1.823-0.005,2.732-0.003c4.18,0.002,7.514-0.542,10.545-1.729    c5.396-2.111,8.984-6.043,10.663-11.688c0.936-3.145,1.355-6.489,1.245-9.941C54.97,24.698,53.884,21.339,51.866,18.56z     M51.931,37.915c-1.516,5.093-4.615,8.494-9.475,10.396c-2.79,1.093-5.87,1.61-9.812,1.591c-0.913-0.002-1.827,0-2.741,0.003    c-3.861,0.011-7.853,0.022-11.729-0.309c-5.958-0.507-10.255-2.95-13.135-7.467c-1.359-2.131-2.187-4.621-2.685-8.075    c-0.614-4.22-0.45-7.431,0.53-10.413c0.559-1.701,1.411-3.252,2.605-4.742c0.523-0.652,0.684-1.281,0.557-2.17    c-0.133-0.931-0.064-1.964,0.008-3.061c0.184-2.807,0.761-5.565,1.714-8.197c3.065,0.542,5.773,1.949,8.253,3.405    c0.57,0.334,1.124,0.7,1.677,1.064c0.527,0.348,1.055,0.695,1.597,1.019c0.54,0.322,1.192,0.46,1.747,0.368    c4.468-0.729,8.89-0.723,13.146,0.021c0.49,0.083,1.075-0.033,1.528-0.304c0.841-0.505,1.675-1.021,2.51-1.538    c1.242-0.769,2.483-1.537,3.746-2.266c1.619-0.935,3.446-1.332,5.381-1.74c0.675,1.74,1.149,3.601,1.413,5.541l0.016,0.118    c0.228,1.681,0.464,3.419,0.309,5.03c-0.154,1.594,0.459,2.586,1.155,3.544c1.803,2.483,2.734,5.386,2.846,8.872    C53.197,31.845,52.806,34.977,51.931,37.915z" fill="#222629"/>
    </symbol>

    <symbol id="github-logo" class="icon">
      <path d="M409.132,114.573c-19.608-33.596-46.205-60.194-79.798-79.8C295.736,15.166,259.057,5.365,219.271,5.365   c-39.781,0-76.472,9.804-110.063,29.408c-33.596,19.605-60.192,46.204-79.8,79.8C9.803,148.168,0,184.854,0,224.63   c0,47.78,13.94,90.745,41.827,128.906c27.884,38.164,63.906,64.572,108.063,79.227c5.14,0.954,8.945,0.283,11.419-1.996   c2.475-2.282,3.711-5.14,3.711-8.562c0-0.571-0.049-5.708-0.144-15.417c-0.098-9.709-0.144-18.179-0.144-25.406l-6.567,1.136   c-4.187,0.767-9.469,1.092-15.846,1c-6.374-0.089-12.991-0.757-19.842-1.999c-6.854-1.231-13.229-4.086-19.13-8.559   c-5.898-4.473-10.085-10.328-12.56-17.556l-2.855-6.57c-1.903-4.374-4.899-9.233-8.992-14.559   c-4.093-5.331-8.232-8.945-12.419-10.848l-1.999-1.431c-1.332-0.951-2.568-2.098-3.711-3.429c-1.142-1.331-1.997-2.663-2.568-3.997   c-0.572-1.335-0.098-2.43,1.427-3.289c1.525-0.859,4.281-1.276,8.28-1.276l5.708,0.853c3.807,0.763,8.516,3.042,14.133,6.851   c5.614,3.806,10.229,8.754,13.846,14.842c4.38,7.806,9.657,13.754,15.846,17.847c6.184,4.093,12.419,6.136,18.699,6.136   c6.28,0,11.704-0.476,16.274-1.423c4.565-0.952,8.848-2.383,12.847-4.285c1.713-12.758,6.377-22.559,13.988-29.41   c-10.848-1.14-20.601-2.857-29.264-5.14c-8.658-2.286-17.605-5.996-26.835-11.14c-9.235-5.137-16.896-11.516-22.985-19.126   c-6.09-7.614-11.088-17.61-14.987-29.979c-3.901-12.374-5.852-26.648-5.852-42.826c0-23.035,7.52-42.637,22.557-58.817   c-7.044-17.318-6.379-36.732,1.997-58.24c5.52-1.715,13.706-0.428,24.554,3.853c10.85,4.283,18.794,7.952,23.84,10.994   c5.046,3.041,9.089,5.618,12.135,7.708c17.705-4.947,35.976-7.421,54.818-7.421s37.117,2.474,54.823,7.421l10.849-6.849   c7.419-4.57,16.18-8.758,26.262-12.565c10.088-3.805,17.802-4.853,23.134-3.138c8.562,21.509,9.325,40.922,2.279,58.24   c15.036,16.18,22.559,35.787,22.559,58.817c0,16.178-1.958,30.497-5.853,42.966c-3.9,12.471-8.941,22.457-15.125,29.979   c-6.191,7.521-13.901,13.85-23.131,18.986c-9.232,5.14-18.182,8.85-26.84,11.136c-8.662,2.286-18.415,4.004-29.263,5.146   c9.894,8.562,14.842,22.077,14.842,40.539v60.237c0,3.422,1.19,6.279,3.572,8.562c2.379,2.279,6.136,2.95,11.276,1.995   c44.163-14.653,80.185-41.062,108.068-79.226c27.88-38.161,41.825-81.126,41.825-128.906   C438.536,184.851,428.728,148.168,409.132,114.573z" fill="#FFFFFF"/>
    </symbol>

    <symbol id="linkedin-contact">
      <path d="M74.609,288.359H4.544V91.698h70.065V288.359z M17.397,275.506h44.358V104.552H17.397V275.506z M39.589,79.423   C17.764,79.423,0,61.678,0,39.872S17.764,0.334,39.589,0.334c21.819,0,39.564,17.738,39.564,39.538   C79.153,61.685,61.408,79.423,39.589,79.423z M39.589,13.188c-14.743,0-26.736,11.973-26.736,26.684   c0,14.724,11.992,26.697,26.736,26.697c14.73,0,26.71-11.98,26.71-26.697C66.299,25.161,54.32,13.188,39.589,13.188z    M288.693,288.359h-69.969v-95.798c0-28.67-3.483-42.314-23.297-42.314c-20.045,0-27.854,11.427-27.854,40.759v97.354H97.63V91.698   h67.642v13.914c10.771-10.148,27.096-18.477,48.439-18.477c66.068,0,74.975,47.514,74.975,93.992v107.232H288.693z    M231.578,275.506h44.262v-94.378c0-50.091-10.392-81.139-62.122-81.139c-25.515,0-42.019,14.145-48.4,26.254l-1.806,3.432h-11.086   v-25.116H110.49v170.954h44.236v-84.506c0-14.66,0-53.613,40.708-53.613c36.151,0,36.151,35.887,36.151,55.168v82.945H231.578z" fill="#222629"/>
    </symbol>

    <symbol id="linkedin-logo" class="icon">
      <path d="M48.875,0C21.882,0,0,21.882,0,48.875S21.882,97.75,48.875,97.75S97.75,75.868,97.75,48.875S75.868,0,48.875,0z    M30.562,81.966h-13.74V37.758h13.74V81.966z M23.695,31.715c-4.404,0-7.969-3.57-7.969-7.968c0.001-4.394,3.565-7.964,7.969-7.964   c4.392,0,7.962,3.57,7.962,7.964C31.657,28.146,28.086,31.715,23.695,31.715z M82.023,81.966H68.294V60.467   c0-5.127-0.095-11.721-7.142-11.721c-7.146,0-8.245,5.584-8.245,11.35v21.869H39.179V37.758h13.178v6.041h0.185   c1.835-3.476,6.315-7.14,13-7.14c13.913,0,16.481,9.156,16.481,21.059V81.966z" fill="#FFFFFF"/>
    </symbol>

    <symbol id="menu">
      <rect x="10" width="1" height="50" fill="#FFFFFF" opacity="0.5"/>
  		<rect x="18" width="1" height="50" fill="#FFFFFF" opacity="0.5"/>
  		<rect x="26" width="1" height="50" fill="#FFFFFF" opacity="0.5"/>
    </symbol>

    <symbol id="more-button-of-three-dots">
      <path d="M55.636,250.364C24.907,250.364,0,275.27,0,306c0,30.73,24.907,55.636,55.636,55.636S111.273,336.73,111.273,306
				C111.273,275.27,86.366,250.364,55.636,250.364z M315.273,250.364c-30.73,0-55.636,24.907-55.636,55.636
				c0,30.729,24.907,55.636,55.636,55.636c30.729,0,55.636-24.905,55.636-55.636C370.909,275.27,346.003,250.364,315.273,250.364z
				 M556.364,250.364c-30.73,0-55.636,24.907-55.636,55.636c0,30.729,24.906,55.636,55.636,55.636
				C587.093,361.636,612,336.73,612,306C612,275.27,587.093,250.364,556.364,250.364z"/>
    </symbol>

    <symbol id="myLogo">
      <style type="text/css">
      	.st0{fill:none;stroke:#000000;stroke-linecap:square;stroke-miterlimit:10;}
      	.st1{fill:none;stroke:#000000;stroke-miterlimit:10;}
      	.st2{fill:none;stroke:#000000;stroke-width:18;stroke-linejoin:bevel;stroke-miterlimit:10;}
      	.st3{fill:none;stroke:#000000;stroke-width:18;stroke-miterlimit:10;}
      </style>
      <line class="st0" x1="401" y1="176" x2="980" y2="176"/>
      <line class="st0" x1="690.5" y1="627.5" x2="401" y2="627.5"/>
      <line class="st1" x1="690.5" y1="627.5" x2="981" y2="627.5"/>
      <line class="st0" x1="951" y1="148" x2="951" y2="656"/>
      <line class="st0" x1="429.5" y1="656" x2="429.5" y2="147"/>
      <line class="st0" x1="543.2" y1="147" x2="837.8" y2="656"/>
      <line class="st0" x1="837.8" y1="147" x2="543.2" y2="656"/>
      <polyline class="st2" points="429.5,175.5 690.5,627.5 951.5,175.5 "/>
      <polyline class="st3" points="560,176 821,176 560,627.5 821,627.5 "/>
    </symbol>

    <symbol id="phone-contact">
      <path d="M25.302,0H9.698c-1.3,0-2.364,1.063-2.364,2.364v30.271C7.334,33.936,8.398,35,9.698,35h15.604   c1.3,0,2.364-1.062,2.364-2.364V2.364C27.666,1.063,26.602,0,25.302,0z M15.004,1.704h4.992c0.158,0,0.286,0.128,0.286,0.287   c0,0.158-0.128,0.286-0.286,0.286h-4.992c-0.158,0-0.286-0.128-0.286-0.286C14.718,1.832,14.846,1.704,15.004,1.704z M17.5,33.818   c-0.653,0-1.182-0.529-1.182-1.183s0.529-1.182,1.182-1.182s1.182,0.528,1.182,1.182S18.153,33.818,17.5,33.818z M26.021,30.625   H8.979V3.749h17.042V30.625z" fill="#222629"/>
    </symbol>

    <symbol id="scroll">
      <rect y="20" width="42" height="2" fill="#FFFFFF"/>
    </symbol>

    <symbol>
    </symbol>
  </defs>
</svg>
